<svg width="38" height="49" viewBox="0 0 38 49" fill="none" xmlns="http://www.w3.org/2000/svg">
<path d="M37.5 37L37.5 18.5C37.5 8.28274 29.2173 1.41726e-05 19 1.28328e-05C8.78274 1.1493e-05 0.500011 8.28274 0.50001 18.5L0.500008 37L37.5 37Z" fill="#0B477E"/>
<path d="M8.28945 37C8.28945 30.9055 13.23 25.9649 19.3245 25.9649C25.419 25.9649 30.3596 30.9055 30.3596 37L8.28945 37Z" fill="#9EE2FF"/>
<path d="M8.28945 37C8.28945 43.0945 13.23 48.0351 19.3245 48.0351C25.419 48.0351 30.3596 43.0945 30.3596 37L8.28945 37Z" fill="#FFDD55"/>
<path d="M19 22.0702C22.0473 22.0702 24.5176 19.5999 24.5176 16.5526C24.5176 13.5054 22.0473 11.0351 19 11.0351C15.9528 11.0351 13.4825 13.5054 13.4825 16.5526C13.4825 19.5999 15.9528 22.0702 19 22.0702Z" fill="#FAFAFF"/>
</svg>
